<svg fill="none" height="1500" viewBox="0 0 1500 1500" width="1500" xmlns="http://www.w3.org/2000/svg"><path d="m0 0h1500v1500h-1500z" fill="#fff"/><path d="m1091.89 620.292v129.539l156.69-156.738c-6.9-93.176-48.75-180.302-117.17-243.925-68.42-63.624-158.354-99.045-251.784-99.168h-129.831v157.655h129.831c56.436.011 110.557 22.435 150.464 62.341 39.9 39.906 62.33 94.027 62.34 150.462" fill="#fbbc06"/><path d="m879.625 1091.89h-129.789l156.697 156.69c93.285-6.81 180.537-48.66 244.247-117.14s99.15-158.531 99.22-252.064v-129.54h-157.61v129.54c0 27.952-5.5 55.632-16.19 81.458-10.7 25.826-26.38 49.296-46.14 69.056-19.77 19.77-43.233 35.45-69.059 46.14s-53.506 16.2-81.459 16.19" fill="#4b7dde"/><path d="m407.859 879.376v-129.54l-156.781 156.78c6.916 93.225 48.821 180.394 117.31 244.014 68.49 63.62 158.501 99 251.982 99.04h129.456v-157.66h-129.539c-56.428-.02-110.539-22.45-150.436-62.35-39.897-39.908-62.315-94.023-62.326-150.451" fill="#86e0f5"/><path d="m620.292 406.53h129.539l-156.78-156.53c-93.218 6.915-180.376 48.814-243.998 117.295s-99.004 158.481-99.053 251.955v129.54h157.655v-129.665c0-56.442 22.419-110.574 62.326-150.489s94.035-62.344 150.477-62.355" fill="#e62f34"/></svg>